<svg width="200" height="213" viewBox="0 0 200 213" fill="none" xmlns="http://www.w3.org/2000/svg">
<g id="Vector">
<path fill-rule="evenodd" clip-rule="evenodd" d="M125.974 110.416C126.008 111.302 126.002 112.2 125.942 113.111C125.743 116.235 125.049 119.479 123.87 122.037C122.343 125.355 121.596 126.373 119.129 129.061C117.379 130.968 114.597 132.703 111.525 133.649C103.966 135.971 98.0247 133.416 93.3312 130.379C91.1703 128.98 91.3892 128.893 89.9048 127.898C89.8593 127.868 89.8233 127.839 89.7829 127.802L86.7854 125.026C86.7802 125.023 86.7766 125.017 86.7714 125.013C77.079 115.678 67.3587 96.0283 69.9749 81.2767C71.7238 71.4227 78.9953 64.1269 88.6326 64.041C90.0847 64.0285 91.3246 64.1269 92.4366 64.3245C92.9037 64.4068 93.3547 64.1541 93.5229 63.7112C93.6926 63.2683 93.5273 62.7791 93.1248 62.5286C92.9845 62.4412 92.8398 62.3531 92.6944 62.2628C92.6746 62.2503 92.6584 62.2429 92.6386 62.2312C87.2305 59.3703 79.9641 57.454 73.5835 58.0108C64.1842 58.8327 58.0445 65.377 56.0291 74.2101C51.484 94.1135 62.7997 118.179 74.7367 130.662C81.815 138.061 89.2151 143.99 99.086 147.423C122.403 155.531 131.691 138.021 129.083 116.7C128.799 114.38 128.411 112.256 127.904 110.149C127.786 109.657 127.319 109.337 126.818 109.407C126.318 109.479 125.955 109.91 125.974 110.416ZM95.0845 83.6601C100.989 82.9271 108.755 89.5243 112.428 98.3949C116.101 107.264 114.292 115.05 108.388 115.783C102.484 116.516 94.7194 109.918 91.0469 101.049C87.3737 92.1788 89.182 84.3931 95.0845 83.6601Z" fill="#242424"/>
<path fill-rule="evenodd" clip-rule="evenodd" d="M172.373 31.9449C160.502 17.1081 144.62 4.85521 128.84 0.233751C126.472 -0.458145 124.03 0.376243 123.54 3.15558C123.186 5.16296 123.662 7.87252 126.138 10.2369C128.951 12.9237 140.929 14.599 155.083 28.0668C156.358 26.4715 157.762 24.4075 159.26 23.4659C160.215 22.8665 161.327 22.8181 162.331 23.3337C163.332 23.8486 163.942 24.7814 164.01 25.9066C164.19 28.9122 163.686 31.574 162.917 34.4356C162.821 34.9262 162.663 35.4727 162.467 36.0375C164.831 38.9087 167.218 42.1375 169.602 45.7851C176.184 55.8594 180.199 66.6874 181.821 75.8722C182.703 80.8499 182.524 87.5757 183.32 89.6448C185.639 95.6706 193.362 96.884 193.861 91.1329C194.542 83.3406 191.951 71.3375 189.337 63.1229C186.197 53.2622 179.744 41.1555 172.373 31.9449ZM138.934 76.4701C139.119 79.4258 139.184 81.9407 141.118 84.0421C144.681 87.9165 150.457 87.0131 150.518 81.4015C150.601 74.3408 149.411 68.2335 144.661 60.5426C144.345 60.0306 144.021 59.5319 143.688 59.0464C143.348 59.3013 143.009 59.551 142.688 59.8066C138.057 63.4879 139.068 65.709 139.107 71.2655C139.119 73.0099 139.065 74.7507 138.934 76.4701ZM147.64 34.3871C141.531 28.9915 134.841 24.7645 128.178 22.5287C125.523 21.6341 120.894 19.2594 118.795 23.5871C117.367 26.5339 119.039 31.5498 123.297 33.519L128.269 35.3214C129.857 35.9553 131.402 36.6766 132.905 37.4727C134.611 37.1731 136.324 36.9777 137.995 36.8653C141.53 36.2895 144.756 35.6967 147.64 34.3871ZM148.98 50.9449C155.25 58.854 159.315 68.5824 160.286 78.8235C160.688 83.0468 159.661 86.4527 162.374 89.8152C165.133 93.2306 170.23 94.1142 171.987 90.1538C173.589 86.5474 171.507 73.9067 169.909 68.7271C167.507 60.9421 163.448 52.0687 157.396 44.5952C155.033 47.2136 152.136 49.3613 148.98 50.9449Z" fill="#E6E6E6"/>
<path fill-rule="evenodd" clip-rule="evenodd" d="M155.63 32.1785C151.257 36.7823 147.12 38.3461 142.753 39.1687C136.818 40.2859 131.24 40.2484 125.62 42.9095C120.913 45.1497 117.152 49.8218 115.229 54.6255C114.802 55.6905 114.499 56.7643 114.217 57.8969C112.346 65.3675 113.387 73.6695 114.253 81.4919C114.254 81.4977 114.255 81.5007 114.256 81.5066C114.75 86.6429 113.833 88.911 112.916 90.7238C112.715 91.1211 112.799 91.5868 113.127 91.8865C113.456 92.1891 113.926 92.2324 114.306 91.9974C118.339 89.4972 120.622 83.6946 121.467 79.558C122.103 76.4532 122.643 73.4234 123.194 70.1748C123.811 66.5485 125.089 60.3942 127.133 57.4518C128.323 55.7441 129.848 54.5153 131.567 53.5883C135.571 51.4297 140.639 50.95 144.965 49.318C150.348 47.301 155.21 43.536 157.996 38.4511C158.538 37.4647 159.642 35.1055 159.883 33.7848C159.887 33.7569 159.893 33.7327 159.899 33.7062C160.357 32.0118 160.752 30.3444 160.89 28.542C160.923 28.1101 160.684 27.7238 160.283 27.56C159.883 27.3954 159.442 27.5056 159.163 27.8376C157.961 29.2743 156.597 31.1605 155.63 32.1785ZM101.959 81.295C102.349 83.5206 102.247 86.6936 101.925 89.2004C101.884 89.5155 101.713 89.7704 101.436 89.9283C101.159 90.084 100.854 90.1024 100.562 89.9739C98.8201 89.2137 95.7852 88.3491 95.8638 92.7635C95.9255 96.2993 97.2233 99.1771 98.588 101.747C100.233 104.846 105.298 110.65 107.567 107.584C108.242 106.672 108.312 105.356 108.207 103.969C108.186 103.691 108.27 103.445 108.457 103.238C108.643 103.032 108.878 102.925 109.156 102.916C111.762 102.844 114.817 102.135 118.237 100.934C120 100.318 121.695 99.4511 123.154 98.6652C133.604 93.2284 136.079 82.2425 136.003 71.2868C135.974 67.0539 135.256 63.081 138.302 59.7118C139.378 58.5234 140.475 57.4481 141.467 56.5594C141.787 56.2715 141.881 55.8286 141.708 55.4341C141.533 55.039 141.143 54.8113 140.714 54.8554C139.616 54.9677 138.49 55.1749 137.319 55.6082C133.338 57.0853 130.197 60.5793 129.095 64.6631C126.598 73.9111 128.231 82.5731 120.279 90.9015C120.27 90.9118 120.261 90.9206 120.253 90.9309C118.413 93.0161 111.696 97.83 108.222 99.2594C107.734 99.4599 107.175 99.2366 106.956 98.7555L105.754 96.0915C105.625 95.8102 105.634 95.5112 105.777 95.2365C107.666 91.611 109.522 90.9882 110.46 85.337C111.135 81.2892 110.485 79.9663 110.12 75.9942C110.119 75.9854 110.117 75.9758 110.118 75.967C109.722 69.6819 107.926 64.4104 110.714 57.5664C111.103 56.6115 111.657 55.5803 112.131 54.6805C112.325 54.3096 112.272 53.8792 111.993 53.5685C111.713 53.2571 111.29 53.1587 110.903 53.3129C107.948 54.4866 105.492 56.6872 103.748 59.3512C99.1102 66.4406 100.631 73.6452 101.959 81.295Z" fill="#BE292E"/>
<path fill-rule="evenodd" clip-rule="evenodd" d="M90.8273 149.825C85.2885 146.875 80.2924 143.287 75.8406 138.877C62.1717 125.327 52.6342 106.744 50.972 87.1137C50.9294 86.6201 50.5306 86.2389 50.0356 86.2184C49.5383 86.1985 49.1123 86.5474 49.0293 87.0366C47.8181 94.2971 47.4567 102.227 47.146 109.799C46.9632 114.278 42.2205 116.196 41.9825 122.007C41.6285 130.592 52.1428 146.723 63.0325 146.799C64.37 146.808 65.8001 146.645 67.1383 146.317C73.61 144.737 69.604 144.136 77.2839 147.423C79.1914 148.239 81.4074 149.144 83.5044 149.81C84.5341 150.139 87.3069 150.928 90.1288 151.639C90.6121 151.76 91.1042 151.506 91.282 151.041C91.4612 150.576 91.2673 150.059 90.8273 149.825Z" fill="#242424"/>
<path d="M8.83617 204.442V205.36H4.84124V208.274H8.25592V209.192H4.84124V212.774H3.70938V204.442H8.83617Z" fill="#BE292E"/>
<path d="M30.8513 208.611C30.8513 209.234 30.7528 209.807 30.5553 210.33C30.3577 210.851 30.0793 211.3 29.7187 211.675C29.3588 212.051 28.9276 212.343 28.4223 212.55C27.9169 212.757 27.358 212.862 26.7462 212.862C26.1343 212.862 25.5768 212.757 25.0737 212.55C24.5706 212.343 24.1387 212.051 23.7788 211.675C23.4189 211.3 23.1405 210.851 22.9429 210.33C22.7453 209.807 22.6469 209.234 22.6469 208.611C22.6469 207.988 22.7453 207.415 22.9429 206.893C23.1405 206.372 23.4189 205.923 23.7788 205.543C24.1387 205.166 24.5706 204.872 25.0737 204.663C25.5768 204.454 26.1343 204.349 26.7462 204.349C27.358 204.349 27.9169 204.454 28.4223 204.663C28.9276 204.872 29.3588 205.166 29.7187 205.543C30.0793 205.923 30.3577 206.372 30.5553 206.893C30.7528 207.415 30.8513 207.988 30.8513 208.611ZM29.6959 208.611C29.6959 208.1 29.6261 207.64 29.4866 207.233C29.347 206.825 29.1502 206.482 28.8946 206.2C28.639 205.919 28.329 205.702 27.9654 205.551C27.6018 205.4 27.1949 205.324 26.7462 205.324C26.301 205.324 25.8963 205.4 25.5328 205.551C25.1685 205.702 24.8592 205.919 24.6014 206.2C24.3443 206.482 24.1446 206.825 24.005 207.233C23.8662 207.64 23.7964 208.1 23.7964 208.611C23.7964 209.122 23.8662 209.581 24.005 209.988C24.1446 210.392 24.3443 210.735 24.6014 211.017C24.8592 211.298 25.1685 211.513 25.5328 211.662C25.8963 211.811 26.301 211.886 26.7462 211.886C27.1949 211.886 27.6018 211.811 27.9654 211.662C28.329 211.513 28.639 211.298 28.8946 211.017C29.1502 210.735 29.347 210.392 29.4866 209.988C29.6261 209.581 29.6959 209.122 29.6959 208.611Z" fill="#BE292E"/>
<path d="M48.4645 211.875C48.8097 211.875 49.1167 211.817 49.3878 211.701C49.6588 211.584 49.8894 211.422 50.0774 211.213C50.2647 211.004 50.408 210.754 50.5071 210.464C50.6055 210.174 50.654 209.854 50.654 209.505V204.448H51.7749V209.51C51.7749 209.989 51.6992 210.434 51.5464 210.845C51.3929 211.256 51.1748 211.611 50.8898 211.911C50.6055 212.211 50.2574 212.448 49.8468 212.618C49.4362 212.788 48.9757 212.873 48.4645 212.873C47.954 212.873 47.4935 212.788 47.0829 212.618C46.6723 212.448 46.3242 212.211 46.0377 211.911C45.7513 211.611 45.5324 211.256 45.3796 210.845C45.2268 210.434 45.149 209.989 45.149 209.51V204.448H46.2698V209.499C46.2698 209.848 46.3205 210.168 46.4189 210.458C46.5181 210.748 46.6613 210.998 46.8486 211.207C47.0366 211.416 47.2665 211.579 47.5398 211.696C47.8123 211.814 48.12 211.875 48.4645 211.875Z" fill="#BE292E"/>
<path d="M67.1295 204.442C67.2302 204.442 67.3058 204.454 67.3543 204.479C67.402 204.504 67.4564 204.556 67.5188 204.634L72.3378 210.905C72.3261 210.805 72.3187 210.705 72.3143 210.611C72.3107 210.516 72.3085 210.425 72.3085 210.336V204.442H73.2956V212.769H72.7271C72.6375 212.769 72.5641 212.753 72.5046 212.722C72.4443 212.691 72.3841 212.639 72.3261 212.566L67.5129 206.301C67.5203 206.397 67.5262 206.492 67.5298 206.585C67.5342 206.677 67.5357 206.763 67.5357 206.84V212.769H66.5485V204.442H67.1295Z" fill="#BE292E"/>
<path d="M95.3805 208.608C95.3805 209.233 95.2821 209.8 95.0845 210.311C94.8869 210.821 94.6085 211.259 94.2479 211.625C93.888 211.989 93.4568 212.269 92.9537 212.469C92.4498 212.668 91.8931 212.769 91.2812 212.769H88.1685V204.442H91.2812C91.8931 204.442 92.4498 204.543 92.9537 204.742C93.4568 204.942 93.888 205.224 94.2479 205.59C94.6085 205.956 94.8869 206.395 95.0845 206.906C95.2821 207.417 95.3805 207.984 95.3805 208.608ZM94.2251 208.608C94.2251 208.099 94.1553 207.642 94.0158 207.239C93.877 206.837 93.6794 206.496 93.4238 206.219C93.1682 205.94 92.8582 205.728 92.4946 205.58C92.1311 205.433 91.7264 205.36 91.2812 205.36H89.3011V211.851H91.2812C91.7264 211.851 92.1311 211.778 92.4946 211.631C92.8582 211.484 93.1682 211.272 93.4238 210.995C93.6794 210.719 93.877 210.381 94.0158 209.977C94.1553 209.575 94.2251 209.118 94.2251 208.608Z" fill="#BE292E"/>
<path d="M116.356 212.769H115.485C115.385 212.769 115.303 212.744 115.241 212.693C115.18 212.643 115.133 212.579 115.102 212.502L114.324 210.492H110.59L109.812 212.502C109.785 212.571 109.738 212.633 109.673 212.688C109.607 212.741 109.525 212.769 109.429 212.769H108.558L111.885 204.442H113.029L116.356 212.769ZM110.904 209.685H114.01L112.704 206.296C112.618 206.088 112.535 205.826 112.454 205.512C112.411 205.671 112.371 205.817 112.33 205.95C112.289 206.083 112.249 206.201 112.21 206.302L110.904 209.685Z" fill="#BE292E"/>
<path d="M135.148 204.431V205.382H132.46V212.763H131.333V205.382H128.633V204.431H135.148Z" fill="#BE292E"/>
<path d="M150.509 212.769H149.383V204.442H150.509V212.769Z" fill="#BE292E"/>
<path d="M173.308 208.611C173.308 209.234 173.209 209.807 173.012 210.33C172.814 210.851 172.536 211.3 172.176 211.675C171.816 212.051 171.384 212.343 170.879 212.55C170.374 212.757 169.814 212.862 169.203 212.862C168.591 212.862 168.034 212.757 167.53 212.55C167.027 212.343 166.596 212.051 166.235 211.675C165.875 211.3 165.597 210.851 165.399 210.33C165.202 209.807 165.103 209.234 165.103 208.611C165.103 207.988 165.202 207.415 165.399 206.893C165.597 206.372 165.875 205.923 166.235 205.543C166.596 205.166 167.027 204.872 167.53 204.663C168.034 204.454 168.591 204.349 169.203 204.349C169.814 204.349 170.374 204.454 170.879 204.663C171.384 204.872 171.816 205.166 172.176 205.543C172.536 205.923 172.814 206.372 173.012 206.893C173.209 207.415 173.308 207.988 173.308 208.611ZM172.152 208.611C172.152 208.1 172.083 207.64 171.944 207.233C171.804 206.825 171.607 206.482 171.351 206.2C171.095 205.919 170.786 205.702 170.422 205.551C170.058 205.4 169.652 205.324 169.203 205.324C168.757 205.324 168.353 205.4 167.989 205.551C167.626 205.702 167.316 205.919 167.059 206.2C166.801 206.482 166.602 206.825 166.462 207.233C166.323 207.64 166.253 208.1 166.253 208.611C166.253 209.122 166.323 209.581 166.462 209.988C166.602 210.392 166.801 210.735 167.059 211.017C167.316 211.298 167.626 211.513 167.989 211.662C168.353 211.811 168.757 211.886 169.203 211.886C169.652 211.886 170.058 211.811 170.422 211.662C170.786 211.513 171.095 211.298 171.351 211.017C171.607 210.735 171.804 210.392 171.944 209.988C172.083 209.581 172.152 209.122 172.152 208.611Z" fill="#BE292E"/>
<path d="M188.268 204.442C188.369 204.442 188.444 204.454 188.493 204.479C188.541 204.504 188.595 204.556 188.657 204.634L193.476 210.905C193.464 210.805 193.457 210.705 193.453 210.611C193.449 210.516 193.448 210.425 193.448 210.336V204.442H194.435V212.769H193.866C193.777 212.769 193.702 212.753 193.643 212.722C193.583 212.691 193.523 212.639 193.464 212.566L188.651 206.301C188.659 206.397 188.665 206.492 188.668 206.585C188.673 206.677 188.674 206.763 188.674 206.84V212.769H187.687V204.442H188.268Z" fill="#BE292E"/>
<path d="M83.7086 197.929C79.6013 197.929 79.071 196.604 79.071 193.954V177.989C80.5951 177.856 81.854 177.856 82.5165 177.856C89.4061 177.856 92.3874 182.427 92.3874 188.919C92.3874 194.683 89.8034 197.929 83.7086 197.929ZM70.9438 197.364C69.9537 196.294 68.8666 194.466 67.4336 191.57L53.3195 163.709C53.2057 163.426 52.3573 163.483 52.3008 163.709L40.0251 190.722C37.14 197.114 35.7254 198.642 32.6618 198.642C32.3783 198.642 32.3783 199.321 32.6618 199.321C35.2068 199.321 36.5172 199.094 39.4596 199.094C42.3439 199.094 43.8724 199.321 46.1347 199.321C46.474 199.321 46.474 198.642 46.1347 198.642C41.8922 198.642 39.5154 195.813 41.5529 191.287L45.5691 182.406H55.6391L61.5216 194.003C63.3887 197.68 62.9928 198.642 59.8808 198.642C59.5414 198.642 59.5414 199.321 59.8808 199.321C62.2003 199.321 63.7846 199.094 66.387 199.094L66.7013 199.095C66.7292 199.222 66.7887 199.321 66.882 199.321C68.0741 199.321 69.4241 199.285 70.8857 199.252C71.7627 199.29 72.6294 199.321 73.4579 199.321C73.5424 199.321 73.6041 199.271 73.6416 199.199C74.1836 199.192 74.736 199.188 75.2957 199.188C78.2762 199.188 82.4504 199.586 84.8346 199.586C93.5795 199.586 100.138 194.286 100.138 187.33C100.138 181.368 95.4341 176.996 88.0149 176.068C93.3804 174.08 96.0973 170.37 96.0973 166.264C96.0973 160.632 91.3936 157.717 83.4434 157.717C80.5951 157.717 77.8128 158.115 75.2957 158.115C72.1153 158.115 69.2669 157.916 66.9481 157.916C66.7491 157.916 66.7491 158.711 66.9481 158.711C70.6581 158.711 71.6511 159.506 71.6511 163.282V193.954C71.6511 195.599 71.4565 196.673 70.9438 197.364ZM46.2852 180.822L50.3015 171.865L54.8282 180.822H46.2852ZM108.87 194.388V166.411C108.87 162.952 109.478 162.102 113.18 162.102C113.423 162.102 113.423 161.374 113.18 161.374C111.116 161.374 108.507 161.556 105.411 161.556C102.498 161.556 99.7676 161.374 97.6435 161.374C97.4613 161.374 97.4613 162.102 97.6435 162.102C101.345 162.102 102.073 162.83 102.073 166.29V194.388C102.073 197.908 101.345 198.576 97.6435 198.576C97.4613 198.576 97.4613 199.304 97.6435 199.304C99.7676 199.304 102.498 199.183 105.411 199.183C108.507 199.183 111.055 199.304 113.18 199.304C113.423 199.304 113.423 198.576 113.18 198.576C109.417 198.576 108.87 197.908 108.87 194.388ZM129.835 198.029C126.073 198.029 125.587 196.816 125.587 194.388V179.762C126.983 179.641 128.136 179.641 128.743 179.641C135.054 179.641 137.786 183.829 137.786 189.776C137.786 195.056 135.419 198.029 129.835 198.029ZM128.682 162.527C132.445 162.527 134.57 164.954 134.57 169.567C134.57 174.24 132.384 178.003 128.015 178.003C127.894 178.003 126.983 178.003 125.587 177.942V166.411C125.587 163.438 126.315 162.527 128.682 162.527ZM133.78 178.003C138.696 176.182 141.184 172.783 141.184 169.02C141.184 163.862 136.875 161.192 129.593 161.192C126.983 161.192 124.434 161.556 122.128 161.556C119.215 161.556 116.605 161.374 114.481 161.374C114.299 161.374 114.299 162.102 114.481 162.102C117.88 162.102 118.79 162.83 118.79 166.29V194.388C118.79 197.908 117.819 198.576 114.421 198.576C114.178 198.576 114.178 199.304 114.421 199.304C116.544 199.304 119.215 199.183 122.128 199.183C124.86 199.183 128.682 199.547 130.867 199.547C138.878 199.547 144.886 194.692 144.886 188.319C144.886 182.858 140.577 178.852 133.78 178.003ZM154.204 166.351C154.204 162.891 154.811 162.102 158.513 162.102C158.756 162.102 158.756 161.374 158.513 161.374C156.449 161.374 153.84 161.556 150.806 161.556C147.893 161.556 145.041 161.374 143.098 161.374C142.916 161.374 142.916 162.102 143.098 162.102C146.8 162.102 147.468 162.83 147.468 166.29V194.388C147.468 197.908 146.8 198.576 143.098 198.576C142.916 198.576 142.916 199.304 143.098 199.304H198.483C199.21 199.304 199.393 199.061 199.393 198.394C199.393 195.663 199.696 192.142 200 189.776C200 189.594 199.332 189.412 199.271 189.655C197.512 195.116 193.81 197.604 187.498 197.604H185.495C183.553 197.604 182.704 196.512 182.704 194.145V180.43H187.68C192.535 180.43 195.084 182.493 195.084 185.771C195.084 185.953 195.813 185.953 195.813 185.771C195.813 183.464 195.63 181.644 195.63 179.58C195.63 177.942 195.691 176.788 195.691 174.119C195.691 173.875 195.023 173.875 195.023 174.119C195.023 176.971 192.535 178.73 187.741 178.73H182.704V166.351C182.704 164.165 183.796 163.134 186.224 163.134H188.045C193.081 163.134 196.055 165.319 197.39 170.052C197.512 170.295 198.118 170.174 198.118 169.992L197.997 161.92C197.997 161.556 197.876 161.374 197.39 161.374H171.658C171.416 161.374 171.416 162.102 171.658 162.102C175.361 162.102 175.967 162.83 175.967 166.29V194.388C175.967 197.567 175.472 198.42 172.648 198.555C172.652 198.505 172.654 198.45 172.654 198.394C172.654 195.238 172.957 191.05 173.2 188.38C173.2 188.138 172.593 188.016 172.532 188.259C171.015 193.963 166.039 197.604 159.727 197.604H157.664C154.69 197.604 154.204 197.119 154.204 194.145V166.351ZM19.0956 198.062C13.5311 198.062 12.339 196.538 12.339 193.226V163.415C12.339 159.837 14.3258 159.241 19.493 159.241C28.0396 159.241 33.4712 168.118 33.4712 179.38C33.4712 191.503 27.4432 198.062 19.0956 198.062ZM19.7589 199.586C31.6166 199.586 41.6205 191.172 41.6205 177.923C41.6205 166.528 32.5443 157.783 18.8312 157.783C16.115 157.783 11.8748 158.115 8.62905 158.115C5.44868 158.115 2.6003 157.916 0.281496 157.916C0.017077 157.916 0.017077 158.711 0.281496 158.711C4.25659 158.711 4.98521 159.506 4.98521 163.282V193.954C4.98521 197.797 4.19049 198.526 0.149286 198.526C-0.0497622 198.526 -0.0497622 199.321 0.149286 199.321C2.46809 199.321 5.44868 199.188 8.62905 199.188C12.1407 199.188 16.9098 199.586 19.7589 199.586ZM82.4504 159.174C86.557 159.174 88.8758 161.825 88.8758 166.86C88.8758 171.961 86.4909 176.068 81.721 176.068C81.5881 176.068 80.5951 176.068 79.071 176.002V163.415C79.071 160.168 79.8664 159.174 82.4504 159.174Z" fill="#242424"/>
</g>
</svg>
